<?xml version="1.0" standalone="no"?>
<!DOCTYPE svg PUBLIC "-//W3C//DTD SVG 20010904//EN"
 "http://www.w3.org/TR/2001/REC-SVG-20010904/DTD/svg10.dtd">
<svg version="1.0" xmlns="http://www.w3.org/2000/svg"
 width="840.000000pt" height="840.000000pt" viewBox="0 0 840.000000 840.000000"
 preserveAspectRatio="xMidYMid meet">
<metadata>
Created by potrace 1.14, written by Peter Selinger 2001-2017
</metadata>
<g transform="translate(0.000000,840.000000) scale(0.100000,-0.100000)"
fill="#000000" stroke="none">
<path d="M3909 8216 c-2 -2 -44 -6 -94 -10 -49 -4 -103 -9 -120 -11 -16 -3
-52 -7 -80 -10 -27 -3 -57 -8 -66 -10 -9 -3 -38 -8 -65 -11 -56 -6 -89 -11
-89 -14 0 -2 -9 -4 -20 -6 -60 -9 -98 -17 -170 -36 -44 -11 -87 -21 -95 -23
-32 -6 -228 -66 -278 -84 -29 -11 -55 -20 -57 -21 -35 -7 -247 -91 -310 -122
-33 -16 -61 -29 -63 -28 -6 2 -197 -96 -200 -102 -2 -5 -11 -8 -20 -8 -9 0
-28 -9 -42 -20 -14 -11 -28 -20 -31 -20 -10 0 -218 -128 -272 -166 -26 -19
-49 -34 -51 -34 -5 0 -162 -115 -215 -158 -255 -204 -461 -407 -652 -643 -125
-154 -266 -356 -349 -504 -18 -33 -38 -63 -44 -67 -6 -4 -7 -8 -2 -8 5 0 4 -6
-2 -13 -20 -23 -140 -272 -192 -396 -75 -180 -169 -472 -196 -604 -2 -10 -6
-28 -10 -39 -3 -11 -7 -30 -9 -41 -1 -12 -7 -49 -13 -82 -19 -100 -28 -158
-36 -230 -4 -27 -9 -70 -12 -95 -4 -25 -7 -66 -7 -92 -1 -27 -4 -48 -8 -48 -9
0 -10 -501 -1 -515 3 -5 7 -26 8 -45 3 -58 21 -228 29 -269 1 -9 8 -50 14 -91
7 -41 15 -82 18 -90 4 -8 5 -19 4 -24 -1 -5 8 -47 19 -95 12 -47 23 -93 25
-101 13 -63 102 -343 136 -425 7 -16 13 -34 14 -40 2 -5 13 -32 25 -60 12 -27
29 -66 38 -85 41 -95 106 -225 156 -314 31 -54 56 -102 56 -107 0 -5 5 -9 10
-9 6 0 10 -4 10 -10 0 -14 121 -199 203 -310 221 -300 506 -591 802 -818 6 -4
28 -21 50 -37 22 -17 42 -32 45 -35 11 -12 271 -181 350 -228 114 -67 464
-242 484 -242 2 0 21 -8 42 -17 22 -9 41 -17 44 -18 3 0 19 -6 35 -12 61 -25
90 -36 98 -38 4 -2 9 -4 12 -5 3 -1 8 -3 13 -4 4 -1 59 -18 122 -38 94 -30
180 -56 210 -63 81 -20 191 -45 210 -49 14 -2 36 -7 50 -10 14 -3 39 -8 55
-10 17 -3 44 -7 60 -10 52 -10 88 -15 140 -21 28 -3 61 -8 75 -10 171 -27 848
-28 998 -1 9 2 44 7 77 11 32 4 68 9 80 11 19 4 83 13 130 20 11 1 20 3 20 4
0 1 7 3 15 5 107 21 150 30 235 52 55 14 107 26 115 27 9 1 20 5 25 8 6 3 36
13 68 22 32 9 70 22 85 28 15 6 31 10 36 9 4 -1 14 4 22 10 8 6 14 8 14 4 0
-4 6 -3 13 2 6 6 30 16 52 23 58 18 256 101 285 119 13 9 25 15 27 13 2 -1 67
31 146 70 78 40 151 77 162 83 11 5 22 12 25 16 3 3 30 19 60 35 30 16 57 31
60 35 3 3 52 36 109 75 58 38 111 74 119 79 16 10 19 13 83 62 20 15 47 35 59
43 12 8 29 21 37 29 8 7 33 29 56 48 130 107 333 302 445 427 57 64 202 242
232 286 13 19 27 37 30 40 3 3 23 32 45 65 22 33 44 65 48 70 14 18 118 187
134 219 9 17 21 34 27 38 6 4 8 8 4 8 -4 0 8 26 26 58 62 111 192 394 211 462
3 8 21 60 40 115 20 55 38 107 40 116 2 9 13 49 25 90 12 40 24 84 27 98 2 13
6 28 8 31 2 4 7 20 9 36 3 16 8 39 11 52 3 12 7 32 10 45 7 30 33 183 39 227
3 19 8 53 11 75 8 51 16 138 19 190 1 22 4 45 8 50 8 13 8 497 0 510 -4 5 -7
26 -9 45 -8 142 -41 383 -68 500 -3 14 -8 35 -11 48 -33 158 -140 498 -203
645 -11 26 -20 48 -20 50 0 1 -10 25 -24 52 -64 130 -82 171 -79 178 1 4 -3 7
-8 7 -6 0 -10 4 -10 10 0 23 -280 485 -309 510 -3 3 -31 39 -62 80 -101 135
-217 268 -365 415 -166 166 -342 319 -455 395 -12 8 -34 24 -48 36 -39 31
-245 165 -341 222 -81 48 -311 166 -414 212 -80 36 -280 113 -293 113 -7 0
-13 3 -13 6 0 4 -21 13 -47 20 -27 7 -82 24 -123 37 -61 18 -143 42 -170 49
-92 22 -192 45 -215 49 -16 3 -41 8 -55 11 -14 3 -36 7 -50 10 -14 3 -34 7
-45 9 -11 2 -45 7 -75 11 -30 4 -62 9 -70 10 -8 1 -42 6 -75 9 -33 4 -80 9
-105 13 -48 6 -685 15 -691 9z m561 -70 c92 -6 156 -12 230 -21 19 -3 55 -7
80 -10 25 -3 56 -7 70 -10 31 -6 88 -16 115 -20 54 -8 213 -43 285 -62 40 -11
59 -14 63 -10 2 1 11 -4 20 -12 10 -7 17 -11 17 -7 0 3 12 1 28 -5 15 -6 34
-12 43 -14 38 -8 235 -77 353 -124 189 -76 528 -244 577 -287 8 -8 19 -14 23
-14 23 0 416 -279 516 -366 18 -16 56 -49 84 -74 59 -52 285 -277 336 -335
167 -190 344 -434 454 -625 21 -36 41 -72 46 -80 53 -89 202 -403 216 -455 1
-5 14 -39 29 -75 23 -57 70 -198 80 -240 2 -8 15 -55 29 -103 14 -48 27 -102
30 -120 3 -18 10 -48 16 -67 12 -42 49 -253 56 -324 3 -28 7 -64 9 -81 29
-222 23 -704 -10 -900 -2 -16 -7 -48 -10 -70 -11 -77 -38 -218 -51 -268 -3
-12 -6 -32 -7 -44 -1 -13 -4 -23 -7 -23 -3 0 -6 -9 -7 -20 -1 -12 -14 -62 -28
-113 -15 -51 -28 -96 -29 -102 -4 -17 -17 -59 -25 -80 -5 -11 -28 -72 -51
-135 -51 -137 -55 -147 -138 -320 -86 -180 -241 -448 -264 -458 -5 -2 -8 -8
-8 -13 0 -22 -226 -318 -335 -439 -52 -58 -268 -274 -325 -325 -43 -39 -125
-106 -205 -170 -165 -132 -432 -303 -630 -405 -55 -29 -106 -57 -112 -62 -7
-6 -13 -7 -13 -3 0 4 -6 3 -12 -3 -15 -11 -294 -132 -307 -132 -5 0 -26 -8
-47 -17 -22 -9 -41 -17 -44 -18 -3 -1 -64 -20 -135 -43 -72 -23 -139 -43 -150
-45 -11 -1 -24 -5 -30 -8 -9 -6 -43 -14 -182 -44 -13 -3 -33 -7 -45 -10 -161
-36 -395 -68 -613 -82 -210 -13 -588 -3 -750 21 -125 19 -203 29 -217 28 -10
0 -18 2 -18 6 0 4 -12 7 -27 8 -32 1 -47 4 -198 39 -60 15 -119 28 -130 30
-11 2 -21 4 -22 5 -2 2 -6 3 -10 4 -5 2 -28 8 -53 15 -25 7 -47 13 -50 14 -3
0 -50 15 -105 34 -55 19 -104 36 -110 37 -5 2 -23 8 -40 15 -16 7 -75 30 -130
52 -99 40 -381 176 -462 223 -22 14 -71 43 -108 65 -37 23 -71 41 -75 41 -5 0
-10 3 -12 8 -2 4 -37 30 -78 57 -74 49 -270 192 -280 204 -3 3 -30 26 -60 51
-117 95 -345 317 -447 435 -107 125 -92 105 -192 237 -60 79 -194 277 -229
339 -11 19 -28 50 -38 69 -11 19 -22 37 -25 40 -18 16 -195 391 -215 455 -2 6
-24 65 -49 132 -25 68 -47 131 -49 140 -1 10 -6 25 -9 33 -8 17 -68 245 -73
275 -1 11 -5 31 -8 45 -18 79 -40 210 -51 310 -4 30 -9 66 -11 80 -28 168 -22
680 11 890 3 19 8 53 11 75 3 22 10 67 16 100 6 33 12 69 14 80 1 11 3 20 4
20 1 0 4 16 7 35 2 19 8 41 13 50 4 8 6 23 5 33 -2 9 0 17 4 17 4 0 7 9 8 20
1 12 14 62 28 113 15 51 28 99 30 107 5 22 63 183 97 270 36 92 49 120 104
237 24 51 44 96 44 102 0 5 3 11 8 13 4 2 15 19 24 38 25 50 86 158 117 205
14 22 32 52 40 67 8 15 22 37 33 47 10 11 18 23 18 27 0 7 144 206 164 226 7
7 17 20 22 29 5 9 29 40 54 70 156 183 381 407 525 524 33 26 62 51 65 54 3 3
32 26 65 50 33 25 62 47 65 50 3 3 12 11 21 16 9 6 74 49 145 96 71 47 173
112 227 142 112 64 390 202 427 212 3 0 25 10 50 21 56 25 186 75 203 78 6 1
17 4 22 8 33 20 427 127 560 152 137 26 250 43 335 51 36 4 76 9 90 11 14 2
77 7 140 10 63 3 116 6 117 7 4 4 326 -1 413 -7z"/>
<path d="M4070 7148 c-14 -6 -20 -12 -13 -15 9 -3 4 -18 -17 -48 -72 -105 -26
-169 53 -74 70 84 55 167 -23 137z m50 -39 c0 -36 -63 -129 -87 -129 -24 0 -9
55 30 112 37 55 57 61 57 17z"/>
<path d="M4275 7147 c-9 -4 -12 -13 -9 -19 4 -6 2 -13 -3 -17 -14 -9 -66 -81
-59 -81 3 0 2 -10 -3 -23 -7 -18 -5 -26 10 -35 16 -10 25 -7 58 24 54 48 87
115 70 143 -13 20 -37 23 -64 8z m51 -20 c3 -8 0 -25 -5 -40 -14 -37 -80 -107
-96 -101 -20 8 3 69 41 106 18 18 30 36 28 40 -3 4 2 8 11 8 8 0 18 -6 21 -13z"/>
<path d="M3905 7135 c-16 -7 -27 -14 -22 -14 4 -1 1 -14 -8 -31 -9 -16 -13
-30 -10 -30 3 0 -1 -10 -9 -22 -18 -30 -28 -88 -16 -88 6 0 10 9 10 20 0 35
28 77 55 84 14 4 25 11 25 17 0 6 -7 6 -20 -1 -23 -12 -25 -3 -8 35 7 15 20
25 32 25 12 0 28 5 36 10 24 16 -29 12 -65 -5z"/>
<path d="M4479 7126 c-13 -6 -24 -18 -24 -26 0 -8 -13 -37 -30 -65 -34 -57
-38 -74 -20 -81 32 -13 128 64 141 113 14 51 -21 82 -67 59z m54 -19 c12 -31
-50 -118 -95 -133 -35 -11 -32 5 10 67 23 33 42 65 42 70 0 14 37 11 43 -4z"/>
<path d="M3590 7080 c-6 -11 -8 -31 -5 -43 5 -17 4 -19 -4 -7 -6 8 -11 13 -12
10 -5 -30 -9 -41 -23 -66 l-15 -29 4 35 c2 19 4 35 5 35 7 0 8 55 1 59 -12 8
-25 -30 -15 -45 4 -7 3 -9 -3 -6 -12 7 -33 -42 -33 -74 0 -11 -3 -19 -7 -19
-5 0 -9 -19 -11 -42 -4 -61 7 -41 29 49 12 51 18 66 18 43 -1 -55 0 -60 16
-60 8 0 14 3 13 8 -1 4 3 18 9 32 6 14 13 32 16 40 3 8 4 -9 1 -38 -2 -29 -1
-58 3 -65 5 -7 11 16 14 53 4 36 11 82 17 103 11 41 -1 59 -18 27z"/>
<path d="M4817 7063 c-10 -3 -16 -11 -13 -18 2 -8 -2 -19 -11 -27 -25 -20 -73
-89 -73 -105 0 -20 46 -16 89 9 20 11 49 38 63 58 23 32 25 39 15 61 -12 24
-36 31 -70 22z m59 -37 c-3 -23 -23 -47 -80 -96 -16 -14 -26 -18 -21 -10 6 12
5 13 -6 3 -7 -7 -17 -13 -22 -13 -30 0 79 139 110 140 17 0 21 -5 19 -24z"/>
<path d="M3361 6998 c-5 -13 -17 -50 -27 -83 -10 -33 -22 -63 -27 -66 -5 -3
-8 -9 -8 -13 3 -18 0 -20 -9 -6 -11 17 -5 67 16 129 18 55 10 67 -12 16 -30
-73 -30 -175 0 -175 13 0 39 55 49 105 3 11 5 4 6 -15 2 -41 15 -68 25 -51 4
6 3 11 -1 11 -11 0 -6 91 7 138 10 37 -6 45 -19 10z"/>
<path d="M5018 6992 c-9 -9 -37 -37 -62 -61 -53 -51 -58 -69 -18 -66 15 1 35
-2 45 -7 11 -6 17 -5 17 2 0 6 -13 13 -30 17 -36 7 -37 13 -7 40 15 13 33 19
55 16 20 -2 31 1 27 7 -3 6 -16 10 -28 10 -22 0 -22 1 3 21 19 15 34 18 63 14
23 -3 37 -1 37 5 0 6 -4 9 -9 5 -5 -3 -12 -2 -15 3 -9 15 -62 12 -78 -6z"/>
<path d="M3165 6923 c-11 -44 -14 -162 -4 -169 5 -3 9 21 10 53 1 58 3 76 14
120 3 13 1 23 -4 23 -5 0 -12 -12 -16 -27z"/>
<path d="M5167 6910 c-60 -38 -108 -81 -104 -93 1 -5 20 -11 40 -13 22 -2 35
1 32 6 -4 6 -15 10 -26 10 -34 0 -20 17 51 65 39 26 70 48 70 51 0 9 -18 2
-63 -26z"/>
<path d="M3026 6892 c-3 -5 -9 -27 -12 -48 -3 -22 -8 -46 -9 -54 -2 -8 -4 -24
-4 -34 -2 -39 -14 -5 -15 41 -2 56 -18 68 -28 21 -12 -59 -14 -207 -2 -195 10
10 11 77 2 77 -5 0 -6 5 -3 11 4 6 7 26 7 45 0 41 8 39 12 -3 2 -31 13 -53 25
-53 5 0 11 25 14 56 7 68 24 93 19 28 -5 -58 4 -94 24 -94 14 0 14 3 3 16 -8
9 -14 48 -15 101 -2 84 -6 103 -18 85z"/>
<path d="M5305 6844 c-58 -41 -114 -94 -100 -94 6 0 24 13 42 28 17 16 51 42
77 58 25 16 46 32 46 37 0 13 -14 7 -65 -29z"/>
<path d="M5386 6759 c-31 -33 -56 -67 -56 -75 0 -17 24 -18 42 -1 20 19 151
82 163 79 5 -2 5 2 -2 9 -9 9 -17 8 -37 -5 -15 -9 -26 -14 -26 -12 0 3 -27
-10 -60 -29 -33 -19 -60 -31 -60 -28 0 3 28 32 61 64 34 32 54 59 46 59 -8 0
-40 -27 -71 -61z"/>
<path d="M2811 6765 c-16 -14 -28 -31 -26 -38 3 -7 7 -39 9 -72 10 -115 16
-122 59 -69 31 37 21 48 -12 13 l-20 -21 -7 38 c-6 33 -4 40 19 60 15 13 22
26 17 29 -6 3 -10 1 -10 -5 0 -6 -4 -8 -10 -5 -5 3 -10 1 -10 -4 0 -6 -4 -11
-9 -11 -19 0 0 65 27 87 15 12 22 22 15 23 -6 0 -25 -11 -42 -25z"/>
<path d="M4088 6775 c-2 -2 -40 -7 -83 -10 -44 -3 -93 -8 -110 -10 -98 -12
-128 -18 -205 -36 -47 -11 -95 -21 -107 -22 -13 0 -23 -5 -23 -9 0 -4 -7 -8
-16 -8 -20 0 -188 -57 -226 -76 -16 -8 -28 -12 -28 -9 0 4 -12 0 -27 -9 -16
-8 -73 -36 -128 -63 -55 -26 -101 -51 -103 -55 -2 -5 -8 -8 -13 -8 -30 0 -294
-186 -413 -290 -55 -49 -202 -197 -226 -229 -9 -11 -30 -36 -48 -55 -17 -19
-58 -72 -91 -118 -33 -46 -65 -88 -71 -95 -5 -7 -10 -14 -10 -17 0 -3 -13 -24
-29 -48 -42 -62 -131 -229 -131 -245 0 -7 -4 -13 -10 -13 -5 0 -10 -4 -10 -10
0 -5 -14 -40 -31 -77 -38 -83 -133 -366 -150 -448 -7 -33 -14 -64 -15 -70 -6
-28 -16 -83 -19 -105 -2 -14 -6 -41 -10 -60 -3 -19 -8 -51 -10 -70 -2 -19 -6
-57 -10 -85 -15 -114 -9 -451 9 -572 4 -23 9 -55 11 -70 4 -28 11 -67 20 -113
3 -14 8 -38 11 -54 3 -16 14 -63 26 -105 11 -41 21 -80 23 -86 1 -5 5 -17 8
-25 3 -8 15 -46 28 -85 43 -136 176 -419 249 -530 22 -33 43 -68 46 -77 4 -10
9 -18 13 -18 4 0 15 -15 26 -32 10 -18 28 -45 39 -60 12 -14 32 -41 46 -59 14
-19 41 -52 60 -74 19 -22 40 -45 45 -51 75 -87 278 -272 365 -334 126 -89 190
-130 190 -123 0 4 7 0 14 -9 12 -16 159 -94 281 -148 110 -50 257 -101 370
-129 73 -18 110 -25 185 -36 14 -1 25 -4 25 -5 0 -2 9 -4 20 -5 11 -1 67 -8
124 -15 106 -13 489 -9 512 6 6 4 30 8 53 9 37 3 75 9 116 18 8 2 33 7 55 12
22 4 72 16 110 27 39 11 77 21 85 23 8 2 15 4 15 5 0 1 10 3 23 6 13 2 36 11
52 19 17 9 31 15 32 15 3 -1 31 8 73 25 17 7 35 13 40 15 6 2 48 23 95 46 47
22 89 41 94 42 5 0 12 5 15 10 3 5 24 19 46 31 47 26 131 78 170 106 195 141
304 239 470 420 49 54 69 93 56 109 -6 7 -9 15 -6 18 11 11 -28 32 -61 33 -31
2 -40 -5 -92 -64 -70 -80 -116 -127 -207 -209 -39 -34 -79 -71 -90 -81 -11
-10 -63 -48 -115 -85 -52 -36 -100 -71 -107 -76 -7 -6 -16 -10 -21 -10 -4 0
-18 -9 -30 -20 -12 -12 -22 -19 -22 -16 0 3 -30 -12 -67 -33 -38 -21 -78 -41
-90 -45 -13 -4 -23 -11 -23 -15 0 -4 -6 -8 -12 -8 -7 0 -38 -12 -68 -26 -90
-41 -330 -117 -415 -131 -16 -3 -41 -7 -55 -11 -14 -3 -43 -8 -65 -10 -22 -3
-51 -8 -65 -11 -82 -20 -499 -13 -615 10 -50 10 -111 20 -120 21 -5 0 -16 4
-22 8 -7 5 -13 6 -13 3 0 -3 -11 -1 -26 4 -14 6 -38 12 -55 15 -27 5 -162 47
-199 62 -8 4 -17 7 -20 8 -3 0 -27 11 -54 23 -28 13 -60 25 -73 28 -13 4 -26
10 -29 15 -3 5 -10 7 -15 4 -5 -4 -9 -2 -9 3 0 6 -12 15 -27 21 -92 35 -319
183 -443 287 -87 74 -253 238 -294 291 -12 14 -33 41 -48 59 -16 17 -28 37
-28 43 0 6 -4 11 -9 11 -19 0 -177 252 -243 390 -17 36 -35 68 -41 71 -5 3 -8
8 -6 10 3 6 -11 50 -31 94 -28 63 -119 340 -112 340 1 0 -3 18 -8 40 -15 62
-23 108 -24 133 -1 12 -4 22 -7 22 -3 0 -9 35 -13 78 -3 42 -9 95 -12 117 -15
107 -5 433 17 585 5 36 11 79 14 95 2 17 7 41 10 55 4 14 8 34 10 45 15 73 63
239 85 290 5 11 12 31 16 44 3 13 13 40 22 60 9 20 15 39 14 44 -1 4 2 7 8 7
5 0 10 7 10 15 0 14 59 145 70 155 3 3 20 34 39 70 129 244 376 535 605 712
112 87 253 183 284 192 12 4 22 12 22 18 0 6 3 8 6 5 4 -4 19 2 33 11 14 10
46 27 71 37 25 11 47 22 50 25 3 3 10 6 15 7 6 1 48 18 94 37 46 19 93 38 105
41 12 4 23 8 26 9 45 19 249 69 328 81 82 12 111 16 167 21 91 9 342 9 410 0
33 -4 74 -9 90 -11 96 -12 248 -44 259 -55 5 -5 14 -6 20 -4 7 3 26 -1 42 -7
34 -14 41 -16 76 -24 39 -8 303 -120 318 -135 3 -3 12 -6 20 -8 8 -2 56 -28
107 -58 69 -42 98 -54 120 -50 15 2 31 5 34 5 13 2 29 54 23 77 -11 41 -212
156 -434 247 -206 85 -446 143 -665 162 -76 7 -323 14 -327 10z"/>
<path d="M5603 6696 c-13 -6 -23 -14 -23 -18 0 -5 -5 -8 -10 -8 -6 0 -31 -13
-57 -29 l-47 -30 29 -11 c17 -7 38 -16 47 -21 9 -5 19 -5 22 0 7 10 -42 33
-55 26 -5 -3 -6 1 -3 9 9 25 61 41 90 27 30 -13 34 -14 34 -3 0 5 -9 13 -21
18 -20 9 -20 10 5 24 23 12 31 11 61 -3 42 -20 47 -4 5 18 -33 17 -45 17 -77
1z"/>
<path d="M2630 6638 c-21 -23 -26 -44 -11 -50 5 -1 11 -23 14 -48 8 -68 18
-110 28 -110 12 0 11 13 0 43 -13 33 -4 40 25 21 13 -9 28 -14 35 -12 6 2 -2
10 -18 18 -48 25 -51 31 -26 58 23 25 29 55 17 86 -9 23 -40 20 -64 -6z m55
-35 c-5 -10 -9 -21 -9 -25 -1 -4 -6 -12 -11 -17 -8 -8 -14 -2 -22 18 -9 24 -8
33 6 50 14 17 18 18 30 6 9 -8 11 -20 6 -32z"/>
<path d="M5762 6603 c-6 -3 -10 -8 -7 -13 3 -5 -5 -11 -17 -15 -43 -12 -104
-43 -117 -59 -17 -20 -2 -20 23 -1 24 19 50 20 39 3 -12 -19 -15 -58 -5 -58 5
0 12 18 16 40 6 37 8 39 31 30 50 -19 73 -19 94 1 26 25 26 31 1 54 -22 20
-37 25 -58 18z m56 -45 c4 -22 -49 -34 -77 -16 -20 12 -20 13 7 25 36 16 66
12 70 -9z"/>
<path d="M2475 6512 c-24 -21 -28 -50 -9 -69 8 -8 14 -22 14 -31 0 -24 31
-102 41 -102 12 0 11 7 -5 39 -13 25 -13 31 5 60 24 40 29 70 16 99 -12 26
-34 28 -62 4z m55 -27 c0 -33 -18 -77 -29 -71 -15 10 -23 76 -11 91 16 19 40
7 40 -20z"/>
<path d="M5874 6459 c-36 -10 -59 -33 -49 -49 3 -6 10 -8 14 -6 4 3 13 1 19
-3 8 -5 -2 -12 -28 -21 -22 -7 -40 -19 -40 -26 0 -8 15 -5 48 11 26 12 63 26
82 31 19 4 38 9 43 10 4 1 16 2 27 3 11 0 20 5 20 11 0 5 -18 7 -42 4 -99 -13
-118 -12 -118 2 0 8 3 14 8 15 4 0 16 3 27 5 11 3 32 5 48 5 15 0 27 5 27 10
0 11 -44 10 -86 -2z"/>
<path d="M4107 6184 c-1 -2 -29 -5 -62 -8 -76 -8 -288 -47 -295 -55 -3 -3 -14
-6 -25 -7 -25 -1 -48 -7 -55 -14 -5 -5 -155 -59 -175 -63 -5 -1 -12 -4 -15 -7
-3 -3 -36 -20 -75 -38 -72 -34 -79 -39 -225 -135 -130 -86 -327 -270 -389
-364 -33 -49 -33 -86 -2 -110 40 -31 62 -17 196 120 115 118 250 236 272 237
5 1 23 14 42 30 19 16 38 27 43 24 4 -3 8 0 8 5 0 9 236 131 253 131 3 0 18 5
34 12 15 6 30 12 33 13 3 1 29 9 59 18 131 41 319 68 471 68 69 0 112 -2 240
-15 59 -6 185 -34 233 -52 20 -7 37 -11 37 -8 0 4 6 2 13 -3 6 -6 30 -16 52
-23 64 -20 240 -107 318 -157 267 -170 476 -400 624 -686 15 -28 28 -54 28
-57 1 -3 13 -30 27 -60 29 -65 53 -132 50 -142 -1 -5 2 -8 8 -8 6 0 9 -3 8 -7
-1 -5 5 -33 14 -63 33 -110 58 -256 62 -355 1 -22 4 -44 7 -50 6 -11 2 -214
-5 -290 -12 -119 -30 -226 -52 -301 -8 -28 -16 -61 -19 -72 -2 -11 -8 -29 -13
-39 -6 -10 -11 -22 -12 -28 -1 -5 -6 -20 -11 -33 -5 -13 -9 -26 -9 -29 0 -29
-180 -366 -210 -393 -3 -3 -24 -30 -46 -60 -83 -112 -189 -218 -341 -340 -85
-69 -307 -189 -423 -229 -36 -13 -74 -27 -85 -31 -35 -15 -60 -21 -185 -45
-78 -16 -154 -24 -255 -30 -33 -1 -63 -3 -67 -4 -19 -3 -49 -48 -46 -71 6 -48
34 -64 112 -63 120 3 279 25 391 54 22 6 47 12 55 14 17 4 154 51 185 65 60
25 203 96 225 111 14 9 63 42 110 72 106 70 149 106 276 232 92 92 244 280
244 304 0 5 4 11 8 13 12 4 83 128 74 128 -4 0 -2 4 4 8 27 18 116 234 160
387 19 64 51 217 58 279 3 23 8 61 12 86 13 89 6 373 -11 475 -38 219 -81 366
-156 538 -34 77 -67 136 -164 296 -16 26 -58 85 -65 91 -3 3 -13 14 -21 26
-74 108 -278 297 -429 397 -198 132 -501 257 -681 281 -19 3 -50 7 -69 10 -94
14 -344 28 -353 20z"/>
<path d="M6406 6109 c-56 -44 -58 -63 -62 -436 -1 -188 -5 -347 -9 -353 -3 -5
-3 -10 2 -10 4 0 8 -26 9 -57 0 -32 4 -76 8 -98 3 -22 11 -69 17 -104 5 -36
12 -68 15 -73 5 -8 12 -42 16 -75 1 -7 5 -13 10 -13 4 0 7 -3 6 -7 -1 -9 5
-27 29 -85 20 -48 80 -111 121 -128 17 -7 32 -14 32 -15 0 -1 5 -26 10 -55 11
-57 14 -326 6 -450 -3 -41 -8 -124 -11 -185 -3 -60 -8 -135 -11 -165 -3 -30
-5 -83 -6 -117 0 -35 -3 -63 -7 -63 -3 0 -7 -35 -8 -78 -1 -74 -9 -203 -17
-287 -19 -187 -25 -510 -11 -559 23 -80 126 -132 244 -124 58 4 104 19 121 39
3 3 19 13 35 23 17 10 33 28 35 39 6 37 4 267 -4 362 -4 50 -9 122 -11 160 -2
39 -6 90 -9 115 -5 51 -12 129 -22 240 -3 41 -8 89 -10 105 -1 17 -6 95 -9
175 -4 80 -10 161 -13 180 -9 47 -7 440 2 515 10 78 30 125 53 125 28 1 95 52
124 95 32 48 63 136 80 225 14 73 20 999 6 1061 -20 96 -117 126 -172 54 -32
-41 -44 -108 -44 -237 2 -221 -2 -475 -8 -510 -6 -41 -30 -54 -61 -32 -18 12
-19 29 -18 379 1 201 -2 365 -6 365 -5 0 -8 7 -8 15 0 9 -12 27 -27 41 -36 33
-91 30 -136 -8 -17 -15 -29 -27 -24 -28 4 0 1 -12 -6 -27 -11 -22 -14 -102
-13 -385 1 -197 -1 -358 -4 -359 -3 0 -13 -2 -22 -4 -10 -2 -21 2 -25 8 -4 6
-6 172 -5 369 3 387 0 408 -51 440 -37 24 -99 22 -131 -3z m100 -76 c7 -15 10
-138 9 -385 l-1 -362 27 -30 c23 -26 34 -30 78 -30 43 0 56 4 77 27 14 15 22
32 19 37 -3 6 -3 10 2 10 4 0 8 34 8 75 0 41 -2 75 -5 75 -7 0 -4 59 3 66 3 4
2 15 -3 25 -7 11 -7 20 0 24 6 3 6 15 0 30 -6 15 -6 27 0 30 5 3 6 15 0 29 -4
12 -4 29 0 36 5 8 5 21 1 29 -6 13 -6 190 -1 293 1 9 10 24 21 34 18 16 21 16
36 2 13 -14 16 -63 17 -391 l1 -375 29 -25 c55 -48 132 -45 171 7 23 30 24 37
25 236 2 338 8 500 18 513 6 7 10 16 10 22 0 5 4 11 9 12 17 5 35 -15 42 -48
4 -19 6 -239 5 -489 -3 -496 -9 -568 -59 -677 -30 -67 -57 -94 -120 -117 -25
-10 -45 -23 -45 -31 0 -7 -6 -18 -14 -24 -21 -18 -47 -187 -47 -306 0 -98 11
-391 16 -445 5 -55 12 -154 20 -285 2 -38 7 -92 10 -120 2 -27 7 -79 10 -115
4 -36 8 -92 11 -125 3 -33 7 -87 9 -120 3 -33 7 -94 9 -135 14 -200 15 -295 3
-311 -39 -51 -159 -74 -223 -41 -75 38 -77 44 -75 204 2 145 4 192 16 328 3
41 8 111 11 155 5 90 12 196 18 270 2 28 7 100 11 160 4 61 9 128 11 150 5 63
18 403 17 480 -1 238 -25 321 -95 332 -29 5 -65 47 -94 113 -31 68 -40 102
-68 264 -22 121 -23 149 -20 495 2 201 6 381 9 398 10 53 59 69 81 26z"/>
<path d="M1095 5971 c-108 -38 -184 -92 -235 -167 -59 -84 -71 -149 -74 -381
0 -68 1 -123 4 -123 3 0 5 -24 5 -53 0 -28 3 -65 6 -82 4 -16 10 -59 13 -95 3
-36 12 -105 21 -155 9 -49 18 -99 19 -111 2 -11 6 -26 10 -32 4 -7 9 -20 11
-29 36 -167 101 -295 164 -328 29 -14 38 -29 48 -75 7 -32 6 -490 -1 -550 -2
-25 -7 -99 -11 -165 -3 -66 -8 -147 -11 -180 -6 -72 -14 -197 -19 -280 -4 -76
-14 -204 -21 -275 -11 -112 -11 -425 -1 -450 29 -69 97 -104 202 -104 85 -1
138 17 198 66 28 24 44 80 41 143 -5 121 -15 276 -19 305 -3 19 -8 73 -11 120
-5 83 -9 139 -20 250 -3 30 -7 91 -9 135 -2 44 -4 80 -5 80 -4 0 -8 44 -15
169 -4 77 -9 149 -11 160 -7 36 -6 480 1 521 13 80 42 145 57 130 3 -3 24 11
47 31 42 36 110 154 115 198 1 12 5 26 8 31 3 6 11 37 17 70 7 33 15 67 18 75
2 8 6 35 8 60 1 25 5 56 9 70 11 43 16 109 22 285 3 94 5 175 5 180 0 6 -2 51
-5 100 -8 180 -38 275 -113 353 -35 36 -133 100 -133 87 0 -3 -9 -1 -21 5 -33
18 -59 22 -164 25 -76 3 -112 -1 -150 -14z m258 -72 c98 -23 181 -88 208 -163
7 -20 15 -36 19 -36 3 0 5 -12 5 -27 1 -16 5 -57 9 -93 10 -77 11 -340 2 -460
-8 -93 -14 -155 -16 -155 -2 0 -3 -12 -14 -100 -4 -33 -14 -85 -22 -115 -9
-30 -17 -64 -20 -76 -15 -77 -77 -167 -129 -189 -42 -17 -60 -44 -81 -125 -29
-110 -22 -651 13 -970 5 -54 7 -72 18 -240 3 -47 8 -110 11 -140 2 -30 6 -82
9 -115 2 -33 7 -89 10 -125 11 -136 12 -291 1 -304 -29 -35 -84 -56 -148 -56
-36 0 -69 5 -76 12 -7 7 -12 8 -12 4 0 -5 -11 3 -25 18 -25 27 -27 39 -27 151
0 86 23 470 36 605 3 30 8 102 11 160 7 142 15 264 21 330 5 52 12 263 16 450
3 172 -19 290 -59 318 -56 39 -79 62 -94 94 -32 63 -49 106 -49 120 0 7 -9 42
-20 78 -11 36 -22 83 -25 105 -3 22 -8 48 -11 58 -18 60 -57 454 -55 547 4
165 20 239 67 302 36 51 119 117 145 118 9 0 19 3 23 7 3 4 12 8 19 9 84 17
108 20 147 18 25 -2 67 -9 93 -15z"/>
<path d="M1228 5741 c-23 -19 -18 -60 8 -62 8 -1 19 -3 24 -4 6 -1 19 -3 29
-4 32 -2 78 -49 108 -109 15 -31 28 -60 29 -64 1 -5 2 -9 4 -10 2 -3 5 -15 15
-58 3 -14 10 -68 17 -120 10 -90 4 -195 -16 -277 -3 -13 -8 -32 -10 -42 -10
-44 -70 -148 -101 -176 -18 -17 -46 -32 -62 -33 -36 -3 -57 -24 -48 -51 13
-42 114 -21 174 36 33 32 103 157 94 167 -4 3 -1 6 6 6 7 0 10 4 7 8 -3 5 2
28 11 53 12 33 16 84 17 204 1 208 -9 270 -63 379 -48 98 -105 152 -175 165
-38 7 -51 5 -68 -8z"/>
<path d="M3935 5830 c10 -11 22 -20 28 -20 9 0 74 -48 108 -80 59 -54 58 -134
-3 -247 -74 -138 -81 -156 -82 -228 -1 -70 32 -186 57 -202 7 -4 8 0 2 13 -10
24 -12 108 -2 157 7 36 14 56 54 145 9 20 18 42 19 47 1 6 12 31 23 57 12 26
24 66 27 90 4 24 8 45 11 48 11 12 64 -69 80 -122 19 -64 37 -67 29 -4 -17
115 -65 191 -185 289 -12 9 -25 17 -30 17 -5 0 -11 4 -13 8 -4 10 -106 52
-126 52 -13 0 -12 -3 3 -20z"/>
<path d="M3889 5804 c-71 -40 -227 -65 -272 -43 -22 10 -22 10 -2 -6 11 -9 56
-38 99 -66 l79 -51 24 31 c14 17 30 31 38 31 7 0 15 4 17 9 3 10 55 23 100 25
l27 1 -22 20 c-12 11 -31 29 -43 41 -19 19 -23 20 -45 8z"/>
<path d="M3570 5763 c0 -6 4 -23 9 -36 11 -29 14 -98 12 -317 -1 -85 0 -162 2
-170 2 -8 7 -31 11 -50 13 -58 56 -123 108 -165 119 -97 109 -92 205 -93 48
-1 84 1 78 3 -5 1 -34 10 -63 20 -61 18 -67 22 -133 88 -30 31 -56 70 -72 110
-33 82 -38 111 -43 244 l-4 113 32 -19 c18 -10 51 -22 73 -27 22 -4 42 -8 45
-9 3 0 26 -4 52 -9 26 -4 62 -17 81 -30 l34 -23 -1 45 c-1 66 -49 104 -164
131 -118 27 -155 44 -191 88 -17 21 -31 41 -31 45 0 4 -9 22 -20 40 -11 18
-20 28 -20 21z"/>
<path d="M3903 5689 c-30 -11 -49 -47 -29 -55 20 -8 67 -1 94 14 24 14 30 41
10 43 -7 1 -22 3 -33 4 -11 1 -30 -2 -42 -6z"/>
<path d="M4495 5679 c-65 -24 -109 -70 -151 -153 -36 -73 -37 -101 -1 -51 12
16 31 38 41 49 19 19 19 19 28 -5 5 -13 10 -64 10 -114 0 -71 -6 -106 -27
-170 -15 -44 -35 -91 -45 -105 -33 -49 -34 -53 -11 -38 26 15 86 134 98 193 8
38 11 50 13 50 1 0 4 11 6 25 3 14 9 43 15 65 6 22 12 47 14 55 17 84 77 172
105 155 5 -3 11 -1 14 3 3 5 22 9 42 10 21 1 42 6 47 11 6 6 3 8 -9 7 -11 -2
-35 3 -54 11 -53 21 -83 22 -135 2z"/>
<path d="M4028 5634 c-16 -8 -28 -12 -28 -8 0 4 -6 1 -14 -5 -7 -6 -35 -13
-62 -16 -27 -2 -51 -4 -54 -5 -2 0 20 -15 50 -32 30 -18 64 -47 75 -65 23 -37
35 -42 35 -13 0 11 3 20 8 20 10 0 32 74 32 110 0 34 -4 35 -42 14z"/>
<path d="M3411 5513 c10 -43 24 -116 30 -163 7 -47 15 -92 19 -100 60 -132
113 -201 183 -236 l32 -17 -42 45 c-114 125 -154 344 -83 461 23 38 25 48 6
41 -7 -3 -40 5 -72 16 -101 37 -93 42 -73 -47z"/>
<path d="M4521 5136 c-28 -29 -126 -87 -156 -92 -5 -1 -32 -11 -60 -22 -31
-13 -42 -21 -29 -21 12 -1 24 -7 27 -14 8 -22 -40 -75 -76 -82 -17 -4 -36 -11
-42 -15 -12 -9 -55 5 -55 18 0 5 12 21 26 36 24 23 25 26 7 26 -10 0 -23 -4
-29 -9 -23 -23 -157 -68 -199 -67 -34 1 -41 -2 -33 -11 6 -7 15 -13 20 -13 6
0 40 -14 77 -32 36 -18 68 -32 71 -31 3 1 24 4 48 8 55 8 186 63 243 102 42
29 83 68 130 123 24 28 72 120 66 126 -2 2 -18 -11 -36 -30z"/>
<path d="M3424 5041 c-62 -33 -113 -81 -129 -125 -15 -39 -15 -47 -2 -79 19
-43 52 -66 102 -70 38 -4 147 14 220 35 83 24 211 31 269 14 37 -10 57 -12 99
-7 17 2 -134 81 -155 81 -10 0 -18 4 -18 8 0 4 -8 9 -17 10 -10 0 -47 7 -83
15 -36 8 -97 12 -138 10 -113 -7 -145 24 -102 95 18 29 18 32 2 31 -9 -1 -31
-9 -48 -18z"/>
<path d="M4206 4811 c-22 -35 -145 -60 -209 -43 -21 6 -37 9 -37 8 0 -2 14
-19 31 -37 51 -57 108 -146 140 -216 34 -75 71 -201 64 -214 -3 -4 -1 -10 5
-14 5 -3 8 -19 6 -35 -2 -17 0 -30 3 -30 8 0 6 -189 -3 -248 -12 -79 -86 -132
-187 -132 -67 0 -172 36 -217 76 l-36 31 31 10 c52 19 167 13 261 -13 48 -13
91 -23 96 -21 16 5 -55 77 -97 98 -71 37 -118 45 -227 43 -58 -1 -115 -5 -126
-8 -80 -18 -191 -50 -199 -57 -5 -5 -19 -9 -32 -9 -13 0 -23 -4 -23 -10 0 -5
-9 -10 -20 -10 -25 0 -27 -20 -2 -21 77 -3 238 -77 318 -146 15 -13 30 -23 34
-23 3 0 16 -9 27 -19 12 -11 38 -29 59 -40 81 -44 254 -6 318 70 29 34 44 39
24 7 -23 -37 -51 -123 -65 -198 -16 -87 2 -348 29 -430 7 -19 12 -37 13 -40 2
-18 59 -108 75 -117 17 -11 17 -7 -5 55 -47 130 -55 183 -59 353 -3 144 15
241 62 336 25 51 32 58 58 58 29 0 34 -10 23 -55 -3 -10 2 -14 16 -12 36 6 79
31 165 96 118 89 232 123 324 97 45 -12 49 -11 40 12 -6 16 -49 34 -101 43
-15 2 -39 7 -52 10 -13 3 -67 5 -120 4 -53 -1 -104 -2 -114 -1 -35 0 -130 -39
-178 -75 -27 -19 -49 -39 -49 -42 -1 -4 -12 -20 -25 -37 l-25 -30 11 35 c14
46 21 332 9 390 -10 50 -15 68 -30 125 -6 22 -12 47 -14 55 -1 9 -5 20 -8 26
-8 12 -20 92 -23 152 -1 24 7 66 17 95 28 78 37 107 33 107 -2 0 -6 -4 -9 -9z"/>
<path d="M3603 2852 c-22 -3 -23 -7 -20 -105 l2 -101 31 -6 c36 -8 78 5 69 21
-4 5 -21 9 -38 7 -30 -3 -32 -1 -32 32 0 24 5 35 15 36 35 2 40 5 40 18 0 9
-10 13 -31 11 -28 -2 -30 -1 -27 29 3 26 7 31 30 31 25 0 63 23 43 26 -25 4
-62 4 -82 1z"/>
<path d="M3730 2842 c-31 -26 -35 -68 -8 -89 61 -49 70 -62 54 -78 -8 -8 -28
-15 -45 -15 -22 0 -29 -4 -25 -14 7 -17 48 -12 82 10 33 21 27 74 -9 91 -60
29 -62 73 -3 83 15 3 28 9 28 14 1 16 -53 15 -74 -2z"/>
<path d="M3842 2852 c-30 -5 -23 -27 9 -27 24 0 24 -2 25 -90 0 -77 3 -90 18
-93 15 -3 17 5 16 75 -2 115 -3 110 27 109 14 0 28 5 30 12 3 7 -5 12 -19 13
-12 0 -36 2 -53 3 -16 1 -40 0 -53 -2z"/>
<path d="M4093 2848 c-13 -6 -23 -17 -23 -25 0 -16 5 -16 31 -3 13 7 25 7 38
0 26 -13 18 -41 -31 -107 -21 -29 -38 -56 -38 -61 0 -13 47 -19 85 -12 43 7
32 25 -15 24 -34 0 -38 2 -27 15 7 9 14 18 17 21 3 3 17 20 30 39 50 71 5 143
-67 109z"/>
<path d="M4254 2848 c-30 -14 -47 -50 -47 -100 1 -60 7 -79 31 -98 32 -27 68
-15 90 31 43 86 -7 197 -74 167z m54 -62 c5 -17 5 -48 1 -70 -12 -66 -52 -70
-69 -7 -10 39 -5 88 11 107 17 20 48 4 57 -30z"/>
<path d="M4386 2835 c-15 -14 -24 -30 -20 -36 5 -8 9 -8 14 1 13 20 17 -1 15
-82 -1 -67 1 -78 15 -78 15 0 17 13 15 105 -1 58 -4 107 -7 110 -3 3 -17 -6
-32 -20z"/>
<path d="M4464 2845 c-3 -8 0 -72 5 -95 1 -4 16 -4 35 -2 44 5 63 -22 44 -63
-10 -23 -16 -26 -44 -20 -36 6 -54 -9 -27 -23 48 -25 116 24 107 75 -7 38 -27
56 -64 56 -27 0 -30 4 -30 29 0 28 2 29 35 27 19 -2 40 2 47 9 15 15 16 14
-51 16 -29 1 -55 -3 -57 -9z"/>
<path d="M2140 2352 c0 -5 14 -21 30 -37 35 -33 35 -29 -7 -275 -3 -19 -7 -48
-8 -65 -2 -16 -4 -31 -5 -32 -4 -5 -7 -22 -9 -48 -1 -29 -24 -33 -49 -9 -12
13 -17 14 -20 4 -5 -13 59 -80 77 -80 5 0 14 -6 18 -13 13 -22 72 -61 80 -53
5 4 -5 19 -20 32 -28 24 -29 26 -22 99 4 41 11 75 15 75 4 0 5 11 2 25 -6 31
13 33 29 3 12 -22 58 -176 72 -243 2 -5 6 -16 10 -22 12 -19 -18 -16 -37 3
-13 12 -16 13 -16 2 0 -19 19 -41 60 -68 19 -13 37 -27 40 -30 3 -3 19 -18 37
-33 36 -33 53 -21 22 14 -25 28 -53 89 -45 97 3 3 1 11 -5 18 -6 7 -12 23 -13
36 -2 13 -10 47 -19 76 -9 28 -13 52 -9 52 3 0 1 5 -6 12 -19 19 -15 48 8 48
60 0 82 120 37 206 -16 31 -100 111 -189 178 -48 37 -58 42 -58 28z m157 -134
c38 -42 54 -76 57 -120 6 -82 -44 -123 -102 -82 -19 13 -21 21 -17 67 12 105
23 157 34 157 4 0 17 -10 28 -22z"/>
<path d="M6129 2180 c-39 -11 -74 -36 -186 -134 -57 -48 -100 -93 -97 -98 3
-5 14 -2 25 8 32 29 43 3 55 -126 3 -30 8 -66 11 -80 7 -28 9 -38 18 -95 18
-117 18 -120 -16 -156 -24 -26 -28 -35 -16 -37 8 -2 26 7 39 20 12 13 43 39
67 58 180 144 251 273 246 450 -4 149 -54 214 -146 190z m-1 -80 c1 -1 6 -3
11 -4 30 -4 82 -111 76 -156 -1 -8 -5 -44 -9 -80 -11 -94 -80 -224 -144 -266
-21 -14 -23 -13 -33 13 -6 15 -12 46 -15 68 -5 51 -11 99 -19 153 -4 24 -8 49
-9 55 -1 7 -4 17 -7 22 -4 6 -7 39 -8 74 -2 58 1 65 26 87 30 26 75 42 108 39
11 -2 21 -4 23 -5z"/>
<path d="M2722 1861 c-122 -63 -112 -305 18 -460 36 -42 64 -61 150 -101 8 -4
32 -3 55 3 55 13 102 65 111 126 10 61 12 124 5 136 -3 6 -7 21 -9 34 -2 13
-13 49 -26 79 -61 143 -208 233 -304 183z m182 -62 c36 -39 74 -117 71 -146
-1 -13 1 -23 4 -23 13 0 9 -154 -5 -193 -16 -45 -68 -97 -96 -97 -61 0 -133
89 -153 192 -9 44 -11 156 -3 191 10 40 47 97 72 108 34 14 79 1 110 -32z"/>
<path d="M5544 1800 c-6 -6 -19 -12 -28 -14 -33 -5 -122 -94 -156 -157 -43
-81 -44 -85 -44 -194 0 -81 2 -94 27 -133 16 -24 42 -49 59 -57 82 -34 194 17
264 120 37 54 76 145 70 161 -3 7 -2 15 2 18 4 2 7 19 6 38 -6 108 -31 171
-82 206 -31 21 -102 28 -118 12z m64 -63 c60 -64 75 -218 33 -329 -27 -69 -50
-100 -92 -121 -37 -18 -83 -7 -111 27 -45 54 -66 184 -42 262 7 24 11 44 8 44
-11 0 51 96 75 117 36 31 100 31 129 0z"/>
<path d="M3314 1609 c-3 -5 -9 -7 -13 -4 -18 11 -80 -92 -65 -108 3 -2 6 -13
8 -23 13 -64 51 -112 126 -159 101 -64 133 -137 84 -190 -19 -20 -29 -24 -51
-19 -16 4 -34 11 -40 17 -7 5 -13 6 -13 3 0 -10 -35 26 -55 56 -9 15 -22 49
-29 75 -17 65 -33 66 -39 1 -3 -29 -7 -64 -10 -78 -6 -35 1 -49 23 -43 11 3
32 -4 47 -14 31 -22 83 -42 127 -50 33 -5 106 24 106 42 0 7 6 17 13 23 8 7
12 27 10 54 -5 65 -6 68 -14 68 -4 0 -10 8 -14 19 -8 26 -54 73 -111 112 -104
71 -136 140 -83 180 46 34 111 -11 156 -108 32 -70 51 -69 59 0 2 18 5 42 8
54 6 26 -11 40 -27 24 -16 -16 -23 -14 -50 13 -13 13 -33 28 -44 34 -33 18
-102 31 -109 21z"/>
<path d="M4913 1539 c-144 -72 -215 -237 -167 -387 20 -60 54 -95 111 -115
112 -38 243 33 314 170 20 39 24 61 24 137 -1 71 -5 97 -20 121 -67 107 -149
130 -262 74z m145 -38 c55 -68 75 -206 41 -296 -20 -54 -76 -141 -85 -132 -3
3 -17 -1 -30 -8 -57 -29 -136 37 -161 134 -14 56 -10 135 9 192 23 69 83 136
125 141 35 4 84 -11 101 -31z"/>
<path d="M3670 1495 c0 -14 31 -29 70 -34 7 -1 8 -63 4 -183 -8 -261 -8 -264
-50 -254 -19 5 -24 2 -24 -14 0 -11 3 -20 8 -21 4 0 23 -2 42 -4 39 -4 94 -11
155 -20 64 -10 87 -13 145 -20 30 -3 62 -8 72 -11 23 -7 29 8 32 71 3 68 -9
70 -48 10 -28 -45 -29 -46 -75 -40 -25 3 -57 7 -71 10 -13 3 -42 7 -65 11 -22
3 -44 9 -49 14 -9 9 -4 185 6 195 10 10 109 -15 113 -29 2 -6 6 -26 9 -45 4
-32 25 -66 27 -45 3 27 11 155 12 191 3 55 -12 56 -34 1 -16 -41 -18 -43 -55
-40 -54 3 -86 11 -80 20 2 4 6 39 7 77 4 105 7 115 38 115 45 0 133 -28 150
-47 9 -11 24 -32 33 -48 28 -49 39 -43 33 20 -2 31 -7 60 -10 65 -3 5 -24 12
-48 15 -54 8 -82 13 -82 15 0 1 -18 3 -40 5 -22 1 -53 5 -70 8 -16 3 -50 9
-75 12 -25 4 -53 9 -62 11 -10 1 -18 -3 -18 -11z"/>
<path d="M4564 1461 c-3 -3 -24 -6 -47 -7 -23 -1 -78 -5 -122 -8 -198 -16
-193 -15 -180 -36 4 -7 20 -10 34 -8 15 2 32 -1 37 -6 5 -6 11 -65 12 -131 5
-307 5 -311 -27 -302 -19 4 -59 -19 -49 -28 7 -8 27 -8 118 -1 106 8 124 14
110 30 -6 9 -23 12 -40 10 l-28 -5 0 98 c0 64 3 100 11 105 23 14 115 9 131
-8 9 -8 16 -18 17 -22 2 -23 8 -45 13 -50 14 -14 18 14 18 120 -1 94 -3 114
-16 116 -15 3 -17 -1 -19 -55 -2 -27 -46 -52 -105 -59 -40 -5 -52 -3 -53 7 -5
101 -2 174 6 186 7 9 36 15 90 17 77 3 80 2 111 -28 17 -17 34 -40 38 -50 11
-30 19 -10 22 53 l3 59 -40 4 c-22 2 -42 1 -45 -1z"/>
</g>
</svg>
